<?xml version='1.0' encoding='utf-8'?>
<svg width="1096.64mm" height="1935.26mm" viewBox="-467.34 -775.78 1096.64 1935.26" version="1.1" xmlns="http://www.w3.org/2000/svg">
  <g transform="scale(1,-1)" stroke-linecap="round">
    <g fill="none" stroke="rgb(0,0,0)" stroke-width="0.5" id="visible">
      <line x1="-347.835987" y1="-1069.305325" x2="-228.048619" y2="-1069.267173" />
      <line x1="-347.835987" y1="-1069.305325" x2="553.185144" y2="372.856127" />
      <line x1="-228.048619" y1="-1069.267173" x2="-66.057093" y2="-809.985869" />
      <line x1="-53.33115" y1="-789.616908" x2="17.829068" y2="-675.718887" />
      <line x1="33.294695" y1="-650.824463" x2="17.829068" y2="-675.718887" />
      <line x1="48.63823" y1="-625.853786" x2="33.294695" y2="-650.824463" />
      <line x1="63.865777" y1="-600.810669" x2="48.63823" y2="-625.853786" />
      <line x1="616.879299" y1="366.837082" x2="601.535764" y2="341.866405" />
      <line x1="78.983441" y1="-575.698924" x2="63.865777" y2="-600.810669" />
      <line x1="601.535764" y1="341.866405" x2="586.308217" y2="316.823288" />
      <line x1="93.997327" y1="-550.522364" x2="78.983441" y2="-575.698924" />
      <line x1="586.308217" y1="316.823288" x2="571.190553" y2="291.711543" />
      <line x1="108.913539" y1="-525.284802" x2="93.997327" y2="-550.522364" />
      <line x1="571.190553" y1="291.711543" x2="556.176667" y2="266.534983" />
      <line x1="123.738182" y1="-499.99005" x2="108.913539" y2="-525.284802" />
      <line x1="556.176667" y1="266.534983" x2="541.260455" y2="241.297421" />
      <line x1="138.47736" y1="-474.641922" x2="123.738182" y2="-499.99005" />
      <line x1="541.260455" y1="241.297421" x2="526.435812" y2="216.002669" />
      <line x1="153.137178" y1="-449.244228" x2="138.47736" y2="-474.641922" />
      <line x1="526.435812" y1="216.002669" x2="511.696634" y2="190.65454" />
      <line x1="167.723741" y1="-423.800783" x2="153.137178" y2="-449.244228" />
      <line x1="511.696634" y1="190.65454" x2="497.036816" y2="165.256847" />
      <line x1="182.243153" y1="-398.315399" x2="167.723741" y2="-423.800783" />
      <line x1="497.036816" y1="165.256847" x2="482.450253" y2="139.813402" />
      <line x1="196.701519" y1="-372.791889" x2="182.243153" y2="-398.315399" />
      <line x1="482.450253" y1="139.813402" x2="467.930841" y2="114.328018" />
      <line x1="211.104943" y1="-347.234065" x2="196.701519" y2="-372.791889" />
      <line x1="467.930841" y1="114.328018" x2="453.472475" y2="88.804507" />
      <line x1="225.45953" y1="-321.645739" x2="211.104943" y2="-347.234065" />
      <line x1="453.472475" y1="88.804507" x2="439.069051" y2="63.246683" />
      <line x1="239.771386" y1="-296.030725" x2="225.45953" y2="-321.645739" />
      <line x1="439.069051" y1="63.246683" x2="424.714463" y2="37.658358" />
      <line x1="254.046613" y1="-270.392835" x2="239.771386" y2="-296.030725" />
      <line x1="424.714463" y1="37.658358" x2="410.402608" y2="12.043344" />
      <line x1="268.291318" y1="-244.735882" x2="254.046613" y2="-270.392835" />
      <line x1="410.402608" y1="12.043344" x2="396.127381" y2="-13.594546" />
      <line x1="282.511604" y1="-219.063679" x2="268.291318" y2="-244.735882" />
      <line x1="396.127381" y1="-13.594546" x2="381.882676" y2="-39.251499" />
      <line x1="296.713576" y1="-193.380037" x2="282.511604" y2="-219.063679" />
      <line x1="381.882676" y1="-39.251499" x2="367.66239" y2="-64.923703" />
      <line x1="310.903339" y1="-167.68877" x2="296.713576" y2="-193.380037" />
      <line x1="367.66239" y1="-64.923703" x2="353.460418" y2="-90.607344" />
      <line x1="339.270655" y1="-116.298611" x2="310.903339" y2="-167.68877" />
      <line x1="353.460418" y1="-90.607344" x2="339.270655" y2="-116.298611" />
      <path d="M -125.228684,-741.951053 A 4.2,4.198659717489442 43.150151585224535 0,1 -131.357021,-747.695919" />
      <line x1="-226.951564" y1="-1070.437456" x2="-346.738932" y2="-1070.475608" />
      <line x1="-227.033843" y1="-1070.349685" x2="-341.206178" y2="-1070.386048" />
      <line x1="-227.96634" y1="-1069.354944" x2="-342.138675" y2="-1069.391308" />
      <line x1="-227.96634" y1="-1069.354944" x2="-65.967605" y2="-810.062101" />
      <line x1="-53.241661" y1="-789.693139" x2="17.911347" y2="-675.806659" />
      <line x1="17.911347" y1="-675.806659" x2="33.376974" y2="-650.912234" />
      <line x1="33.376974" y1="-650.912234" x2="48.720509" y2="-625.941557" />
      <line x1="48.720509" y1="-625.941557" x2="63.948056" y2="-600.89844" />
      <line x1="601.618043" y1="341.778634" x2="616.961578" y2="366.749311" />
      <line x1="63.948056" y1="-600.89844" x2="79.06572" y2="-575.786695" />
      <line x1="586.390496" y1="316.735516" x2="601.618043" y2="341.778634" />
      <line x1="79.06572" y1="-575.786695" x2="94.079606" y2="-550.610136" />
      <line x1="571.272832" y1="291.623772" x2="586.390496" y2="316.735516" />
      <line x1="94.079606" y1="-550.610136" x2="108.995818" y2="-525.372573" />
      <line x1="556.258946" y1="266.447212" x2="571.272832" y2="291.623772" />
      <line x1="108.995818" y1="-525.372573" x2="123.820461" y2="-500.077822" />
      <line x1="541.342734" y1="241.20965" x2="556.258946" y2="266.447212" />
      <line x1="123.820461" y1="-500.077822" x2="138.559639" y2="-474.729693" />
      <line x1="526.518091" y1="215.914898" x2="541.342734" y2="241.20965" />
      <line x1="138.559639" y1="-474.729693" x2="153.219457" y2="-449.332" />
      <line x1="511.778913" y1="190.566769" x2="526.518091" y2="215.914898" />
      <line x1="153.219457" y1="-449.332" x2="167.80602" y2="-423.888555" />
      <line x1="497.119095" y1="165.169076" x2="511.778913" y2="190.566769" />
      <line x1="167.80602" y1="-423.888555" x2="182.325432" y2="-398.403171" />
      <line x1="482.532532" y1="139.725631" x2="497.119095" y2="165.169076" />
      <line x1="182.325432" y1="-398.403171" x2="196.783798" y2="-372.87966" />
      <line x1="468.01312" y1="114.240247" x2="482.532532" y2="139.725631" />
      <line x1="196.783798" y1="-372.87966" x2="211.187222" y2="-347.321836" />
      <line x1="453.554754" y1="88.716736" x2="468.01312" y2="114.240247" />
      <line x1="211.187222" y1="-347.321836" x2="225.54181" y2="-321.73351" />
      <line x1="439.15133" y1="63.158912" x2="453.554754" y2="88.716736" />
      <line x1="225.54181" y1="-321.73351" x2="239.853665" y2="-296.118496" />
      <line x1="424.796742" y1="37.570587" x2="439.15133" y2="63.158912" />
      <line x1="239.853665" y1="-296.118496" x2="254.128892" y2="-270.480607" />
      <line x1="410.484887" y1="11.955573" x2="424.796742" y2="37.570587" />
      <line x1="254.128892" y1="-270.480607" x2="268.373597" y2="-244.823654" />
      <line x1="396.20966" y1="-13.682317" x2="410.484887" y2="11.955573" />
      <line x1="268.373597" y1="-244.823654" x2="282.593883" y2="-219.15145" />
      <line x1="381.964955" y1="-39.33927" x2="396.20966" y2="-13.682317" />
      <line x1="282.593883" y1="-219.15145" x2="296.795855" y2="-193.467808" />
      <line x1="367.744669" y1="-65.011474" x2="381.964955" y2="-39.33927" />
      <line x1="296.795855" y1="-193.467808" x2="310.985618" y2="-167.776541" />
      <line x1="353.542697" y1="-90.695116" x2="367.744669" y2="-65.011474" />
      <line x1="310.985618" y1="-167.776541" x2="339.352934" y2="-116.386382" />
      <line x1="339.352934" y1="-116.386382" x2="353.542697" y2="-90.695116" />
      <path d="M -125.187859,-741.995233 A 4.2,4.198659717489442 43.150151585224535 0,1 -131.315567,-747.739509" />
      <line x1="-226.951564" y1="-1070.437456" x2="-64.863911" y2="-811.002292" />
      <line x1="-52.137968" y1="-790.633331" x2="18.926122" y2="-676.88917" />
      <line x1="18.926122" y1="-676.88917" x2="34.391749" y2="-651.994746" />
      <line x1="34.391749" y1="-651.994746" x2="49.735284" y2="-627.024069" />
      <line x1="49.735284" y1="-627.024069" x2="64.962831" y2="-601.980952" />
      <line x1="64.962831" y1="-601.980952" x2="80.080496" y2="-576.869207" />
      <line x1="602.632819" y1="340.696122" x2="617.976353" y2="365.666799" />
      <line x1="80.080496" y1="-576.869207" x2="95.094381" y2="-551.692647" />
      <line x1="587.405271" y1="315.653004" x2="602.632819" y2="340.696122" />
      <line x1="95.094381" y1="-551.692647" x2="110.010593" y2="-526.455085" />
      <line x1="572.287607" y1="290.54126" x2="587.405271" y2="315.653004" />
      <line x1="110.010593" y1="-526.455085" x2="124.835236" y2="-501.160334" />
      <line x1="557.273721" y1="265.3647" x2="572.287607" y2="290.54126" />
      <line x1="124.835236" y1="-501.160334" x2="139.574414" y2="-475.812205" />
      <line x1="542.35751" y1="240.127138" x2="557.273721" y2="265.3647" />
      <line x1="139.574414" y1="-475.812205" x2="154.234232" y2="-450.414512" />
      <line x1="527.532867" y1="214.832386" x2="542.35751" y2="240.127138" />
      <line x1="154.234232" y1="-450.414512" x2="168.820795" y2="-424.971067" />
      <line x1="512.793689" y1="189.484257" x2="527.532867" y2="214.832386" />
      <line x1="168.820795" y1="-424.971067" x2="183.340207" y2="-399.485683" />
      <line x1="498.133871" y1="164.086564" x2="512.793689" y2="189.484257" />
      <line x1="183.340207" y1="-399.485683" x2="197.798573" y2="-373.962172" />
      <line x1="483.547308" y1="138.643119" x2="498.133871" y2="164.086564" />
      <line x1="197.798573" y1="-373.962172" x2="212.201998" y2="-348.404348" />
      <line x1="469.027896" y1="113.157735" x2="483.547308" y2="138.643119" />
      <line x1="212.201998" y1="-348.404348" x2="226.556585" y2="-322.816022" />
      <line x1="454.56953" y1="87.634224" x2="469.027896" y2="113.157735" />
      <line x1="226.556585" y1="-322.816022" x2="240.86844" y2="-297.201008" />
      <line x1="440.166105" y1="62.0764" x2="454.56953" y2="87.634224" />
      <line x1="240.86844" y1="-297.201008" x2="255.143668" y2="-271.563119" />
      <line x1="425.811518" y1="36.488075" x2="440.166105" y2="62.0764" />
      <line x1="255.143668" y1="-271.563119" x2="269.388372" y2="-245.906165" />
      <line x1="411.499663" y1="10.873061" x2="425.811518" y2="36.488075" />
      <line x1="269.388372" y1="-245.906165" x2="283.608658" y2="-220.233962" />
      <line x1="397.224435" y1="-14.764829" x2="411.499663" y2="10.873061" />
      <line x1="283.608658" y1="-220.233962" x2="297.81063" y2="-194.55032" />
      <line x1="382.979731" y1="-40.421782" x2="397.224435" y2="-14.764829" />
      <line x1="297.81063" y1="-194.55032" x2="312.000393" y2="-168.859053" />
      <line x1="368.759445" y1="-66.093986" x2="382.979731" y2="-40.421782" />
      <line x1="312.000393" y1="-168.859053" x2="340.36771" y2="-117.468894" />
      <line x1="354.557473" y1="-91.777627" x2="368.759445" y2="-66.093986" />
      <line x1="340.36771" y1="-117.468894" x2="354.557473" y2="-91.777627" />
      <line x1="-227.033843" y1="-1070.349685" x2="-64.9534" y2="-810.92606" />
      <line x1="-52.227457" y1="-790.557099" x2="18.843843" y2="-676.801399" />
      <line x1="18.843843" y1="-676.801399" x2="34.30947" y2="-651.906975" />
      <line x1="34.30947" y1="-651.906975" x2="49.653005" y2="-626.936298" />
      <line x1="49.653005" y1="-626.936298" x2="64.880552" y2="-601.893181" />
      <line x1="64.880552" y1="-601.893181" x2="79.998217" y2="-576.781436" />
      <line x1="602.55054" y1="340.783893" x2="617.894074" y2="365.75457" />
      <line x1="79.998217" y1="-576.781436" x2="95.012102" y2="-551.604876" />
      <line x1="587.322992" y1="315.740776" x2="602.55054" y2="340.783893" />
      <line x1="95.012102" y1="-551.604876" x2="109.928314" y2="-526.367314" />
      <line x1="572.205328" y1="290.629031" x2="587.322992" y2="315.740776" />
      <line x1="109.928314" y1="-526.367314" x2="124.752957" y2="-501.072562" />
      <line x1="557.191442" y1="265.452471" x2="572.205328" y2="290.629031" />
      <line x1="124.752957" y1="-501.072562" x2="139.492135" y2="-475.724434" />
      <line x1="542.27523" y1="240.214909" x2="557.191442" y2="265.452471" />
      <line x1="139.492135" y1="-475.724434" x2="154.151953" y2="-450.32674" />
      <line x1="527.450588" y1="214.920157" x2="542.27523" y2="240.214909" />
      <line x1="154.151953" y1="-450.32674" x2="168.738516" y2="-424.883295" />
      <line x1="512.71141" y1="189.572028" x2="527.450588" y2="214.920157" />
      <line x1="168.738516" y1="-424.883295" x2="183.257928" y2="-399.397911" />
      <line x1="498.051591" y1="164.174335" x2="512.71141" y2="189.572028" />
      <line x1="183.257928" y1="-399.397911" x2="197.716294" y2="-373.874401" />
      <line x1="483.465029" y1="138.73089" x2="498.051591" y2="164.174335" />
      <line x1="197.716294" y1="-373.874401" x2="212.119718" y2="-348.316577" />
      <line x1="468.945617" y1="113.245506" x2="483.465029" y2="138.73089" />
      <line x1="212.119718" y1="-348.316577" x2="226.474306" y2="-322.728251" />
      <line x1="454.487251" y1="87.721996" x2="468.945617" y2="113.245506" />
      <line x1="226.474306" y1="-322.728251" x2="240.786161" y2="-297.113237" />
      <line x1="440.083826" y1="62.164171" x2="454.487251" y2="87.721996" />
      <line x1="240.786161" y1="-297.113237" x2="255.061389" y2="-271.475347" />
      <line x1="425.729239" y1="36.575846" x2="440.083826" y2="62.164171" />
      <line x1="255.061389" y1="-271.475347" x2="269.306093" y2="-245.818394" />
      <line x1="411.417384" y1="10.960832" x2="425.729239" y2="36.575846" />
      <line x1="269.306093" y1="-245.818394" x2="283.526379" y2="-220.146191" />
      <line x1="397.142156" y1="-14.677058" x2="411.417384" y2="10.960832" />
      <line x1="283.526379" y1="-220.146191" x2="297.728351" y2="-194.462549" />
      <line x1="382.897452" y1="-40.334011" x2="397.142156" y2="-14.677058" />
      <line x1="297.728351" y1="-194.462549" x2="311.918114" y2="-168.771282" />
      <line x1="368.677166" y1="-66.006215" x2="382.897452" y2="-40.334011" />
      <line x1="311.918114" y1="-168.771282" x2="340.285431" y2="-117.381123" />
      <line x1="354.475194" y1="-91.689856" x2="368.677166" y2="-66.006215" />
      <line x1="340.285431" y1="-117.381123" x2="354.475194" y2="-91.689856" />
      <path d="M -296.513122,757.487727 A 25.4,0.46818313516767623 0.0 0,0 -245.716913,757.495816" />
      <path d="M -245.713122,-1069.866205 A 25.400000000000006,0.46818313516767635 0.0 1,0 -296.513122,-1069.866205" />
      <path d="M -296.513122,-1069.866205 A 25.4,0.46818313516767623 0.0 0,0 -245.716913,-1069.858117" />
      <path d="M -268.613187,660.954021 C -268.81932,661.157011 -269.053604,661.341737 -269.316041,661.5082 C -269.794414,661.811619 -270.40181,662.045972 -271.042917,662.122067 C -271.683403,662.202382 -272.352876,662.124228 -272.938254,661.916162 C -273.562391,661.696166 -274.077511,661.351674 -274.484023,660.95293 C -274.890986,660.553052 -275.190791,660.09787 -275.395862,659.626294 C -275.672118,658.988867 -275.781401,658.314968 -275.734758,657.648464 C -275.687021,656.982271 -275.483053,656.319914 -275.103332,655.713768 C -274.996963,655.543508 -274.874318,655.377042 -274.735399,655.214369" />
      <path d="M -268.613187,690.948924 C -268.81932,691.151914 -269.053604,691.33664 -269.316041,691.503103 C -269.794414,691.806522 -270.40181,692.040875 -271.042917,692.11697 C -271.683403,692.197285 -272.352876,692.119132 -272.938254,691.911065 C -273.562391,691.69107 -274.077511,691.346577 -274.484023,690.947833 C -274.890986,690.547955 -275.190791,690.092773 -275.395862,689.621197 C -275.672118,688.98377 -275.781401,688.309872 -275.734758,687.643367 C -275.687021,686.977174 -275.483053,686.314817 -275.103332,685.708671 C -274.996963,685.538412 -274.874318,685.371945 -274.735399,685.209272" />
      <path d="M -250.475622,-1069.866205 A 20.637500000000017,0.38039879732373727 0.0 1,0 -291.750622,-1069.866205" />
      <path d="M -291.750622,-1069.866205 A 20.6375,0.38039879732373694 0.0 0,0 -250.478702,-1069.859633" />
      <path d="M -268.574012,660.907715 C -268.76945,661.094536 -268.989235,661.2653 -269.233367,661.420008 C -269.710894,661.723012 -270.318528,661.957945 -270.959943,662.034192 C -271.600747,662.114726 -272.270645,662.036437 -272.855823,661.828229 C -273.480031,661.607992 -273.994664,661.263372 -274.400863,660.864621 C -274.807489,660.464704 -275.107173,660.009565 -275.312394,659.537255 C -275.58835,658.90002 -275.697769,658.22557 -275.651036,657.55877 C -275.603269,656.892264 -275.399083,656.230027 -275.020042,655.624918 C -274.923806,655.470994 -274.814304,655.320061 -274.691534,655.17212" />
      <path d="M -268.574012,690.902619 C -268.76945,691.089439 -268.989235,691.260203 -269.233367,691.414911 C -269.710894,691.717916 -270.318528,691.952849 -270.959943,692.029095 C -271.600747,692.109629 -272.270645,692.03134 -272.855823,691.823133 C -273.480031,691.602895 -273.994664,691.258275 -274.400863,690.859524 C -274.807489,690.459608 -275.107173,690.004468 -275.312394,689.532158 C -275.58835,688.894924 -275.697769,688.220473 -275.651036,687.553673 C -275.603269,686.887167 -275.399083,686.22493 -275.020042,685.619821 C -274.923806,685.465897 -274.814304,685.314965 -274.691534,685.167023" />
      <path d="M -297.037132,703.202449 C -252.627761,745.880343 -133.302073,790.32097 -22.355634,770.783631" />
      <path d="M -75.280734,629.770733 C -181.297944,632.232485 -247.695702,587.357934 -296.037282,556.710625" />
      <line x1="-303.455136" y1="556.6693" x2="-303.455136" y2="703.200404" />
      <path d="M -22.355634,770.783631 C 5.585071,765.863652 27.812837,751.675675 45.641708,732.656723" />
      <path d="M 45.641708,732.656723 C 98.608029,676.154891 112.750782,577.016063 122.523859,551.57773" />
      <path d="M 122.523859,551.57773 C 135.586629,517.576669 161.459537,450.095627 208.187952,381.36924 C 212.575563,374.916107 217.240898,369.097845 222.138292,363.873548" />
      <path d="M 222.138292,363.873548 C 269.398546,313.458664 338.269191,318.356286 387.715154,341.80715" />
      <path d="M 387.715154,341.80715 C 442.286008,367.687136 485.542551,409.531805 531.675665,445.002474" />
      <path d="M 531.675665,445.002474 C 555.699663,463.473041 584.952991,453.225357 603.775258,433.1467" />
      <path d="M 603.775258,433.1467 C 621.098041,414.667618 629.585552,387.861549 617.029924,367.451841" />
      <line x1="617.029924" y1="367.451841" x2="553.054473" y2="372.995519" />
      <path d="M 553.054473,372.995519 C 558.907646,382.066279 559.699556,389.138449 556.923117,392.100216" />
      <path d="M 556.923117,392.100216 C 554.597475,394.581095 549.768164,394.177981 543.312588,389.649736 C 529.150102,379.715503 471.704487,322.093505 441.318142,300.05826" />
      <path d="M 441.318142,300.05826 C 410.931788,278.023004 316.052851,216.29065 249.339809,244.546598" />
      <path d="M 249.339809,244.546598 C 226.823172,254.083203 206.108931,270.658622 187.675448,290.322543" />
      <path d="M 187.675448,290.322543 C 151.494413,328.918669 124.100093,379.413372 109.109742,411.935485" />
      <path d="M 109.109742,411.935485 C 84.969517,464.30926 59.223227,539.248006 15.225917,586.182144" />
      <path d="M 15.225917,586.182144 C -1.142484,603.643139 -20.036967,617.22808 -42.314615,624.333035" />
      <path d="M -44.625583,625.043117 C -54.204108,627.875254 -64.400483,629.51799 -75.280734,629.770733" />
      <path d="M -268.735692,661.090565 A 4.2,4.198659717489442 43.150151585224535 0,1 -274.864029,655.345699" />
      <path d="M -268.735692,691.085468 A 4.2,4.198659717489442 43.150151585224535 0,1 -274.864029,685.340602" />
      <path d="M -268.667474,691.010917 A 4.2,4.198659717489442 43.150151585224535 0,1 -274.794036,685.267715" />
      <path d="M -268.667474,661.016014 A 4.2,4.198659717489442 43.150151585224535 0,1 -274.794036,655.272812" />
      <path d="M 15.295017,586.108393 C -8.588461,611.559117 -37.847948,628.756961 -75.142523,629.623296" />
      <path d="M 249.478021,244.399161 C 226.961384,253.935766 206.247142,270.511185 187.81366,290.175106" />
      <path d="M 441.456354,299.910822 C 411.07,277.875567 316.191062,216.143213 249.478021,244.399161" />
      <path d="M 556.991492,392.025641 C 554.639867,394.425268 549.842439,393.985696 543.450799,389.502299 C 529.288313,379.568066 471.842698,321.946068 441.456354,299.910822" />
      <line x1="617.168135" y1="367.304403" x2="553.192685" y2="372.848082" />
      <path d="M 603.91347,432.999262 C 621.236253,414.520181 629.723763,387.714111 617.168135,367.304403" />
      <path d="M 122.662071,551.430293 C 135.724841,517.429231 161.597749,449.94819 208.326164,381.221803 C 212.693139,374.79902 217.335232,369.00515 222.207419,363.799863" />
      <path d="M -75.142523,629.623296 C -181.159732,632.085048 -247.55749,587.210497 -295.89907,556.563188" />
      <path d="M 45.77992,732.509286 C 98.74624,676.007454 112.888994,576.868625 122.662071,551.430293" />
      <path d="M -74.045468,628.453013 C -148.185779,630.174573 -202.950072,608.746166 -245.713122,585.22291" />
      <path d="M 46.876974,731.339003 C 99.843295,674.837171 113.986048,575.698342 123.759125,550.26001" />
      <path d="M 123.759125,550.26001 C 136.821895,516.258948 162.694803,448.777906 209.423218,380.05152 C 213.626519,373.869463 218.084701,368.270059 222.757617,363.217345" />
      <path d="M 605.010525,431.828979 C 622.333307,413.349897 630.820818,386.543828 618.26519,366.13412" />
      <path d="M 557.482254,391.372864 C 554.964674,393.159631 550.43176,392.459265 544.547854,388.332016 C 530.385368,378.397783 472.939753,320.775784 442.553409,298.740539" />
      <path d="M 430.61781,290.408774 C 392.071979,264.460516 310.108622,218.013766 250.575075,243.228877" />
      <path d="M 250.575075,243.228877 C 228.058439,252.765483 207.344197,269.340902 188.910714,289.004823" />
      <path d="M 15.843045,585.520705 C -7.93951,610.650984 -37.036174,627.593305 -74.045468,628.453013" />
      <path d="M 15.912031,585.446377 C -0.767387,603.052214 -20.059595,616.630419 -42.859812,623.4612" />
      <path d="M -46.300471,624.433332 C -54.986895,626.740837 -64.173398,628.079463 -73.907257,628.305576" />
      <path d="M 250.713287,243.08144 C 239.279592,247.924021 228.310644,254.581556 217.869076,262.536818" />
      <path d="M 215.60798,264.286094 C 206.312034,271.587176 197.443954,279.901988 189.048926,288.857386" />
      <path d="M 442.69162,298.593102 C 437.565436,294.87575 430.603808,290.028628 422.251606,284.674377" />
      <path d="M 419.98597,283.231366 C 378.391251,256.911088 305.168922,220.017051 250.713287,243.08144" />
      <path d="M 557.537498,391.282916 C 555.003996,392.996532 550.505894,392.26688 544.686065,388.184579 C 530.523579,378.250345 473.077964,320.628347 442.69162,298.593102" />
      <path d="M 605.148736,431.681542 C 622.471519,413.20246 630.95903,386.396391 618.403401,365.986683" />
      <path d="M 123.897337,550.112572 C 136.960107,516.111511 162.833015,448.630469 209.56143,379.904082 C 213.744126,373.752331 218.17921,368.177534 222.827122,363.144255" />
      <path d="M -73.907257,628.305576 C -148.127466,630.028991 -202.929873,608.552516 -245.713122,584.999414" />
      <path d="M 47.015186,731.191565 C 99.981506,674.689733 114.12426,575.550905 123.897337,550.112572" />
      <line x1="-65.136518" y1="-811.438622" x2="220.419521" y2="-1056.159351" />
      <line x1="248.296935" y1="-1050.685296" x2="259.726181" y2="-1060.480128" />
      <line x1="249.597349" y1="-1049.797032" x2="259.768615" y2="-1058.513779" />
      <line x1="-137.904734" y1="-746.761041" x2="225.114806" y2="-1056.002679" />
      <line x1="-137.531533" y1="-749.099689" x2="222.801997" y2="-1056.053225" />
      <path d="M -120.426161,-737.131355 A 11.0,10.996489736281871 43.150151585224535 0,1 -136.476567,-752.177432" />
      <line x1="-118.888168" y1="-733.77154" x2="249.624545" y2="-1047.69259" />
      <line x1="237.574957" y1="-1055.92321" x2="249.624545" y2="-1047.69259" />
      <path d="M -124.688781,-741.286091 A 5.05,5.048388469838495 43.150151585224535 0,1 -132.083842,-748.159784" />
      <path d="M 230.400247,-1067.191862 A 16.0,0.2949185103418433 0.0 0,0 262.397859,-1067.186767" />
      <path d="M 262.400247,-1075.190503 A 16.0,0.2949185103418433 0.0 1,0 230.400247,-1075.190503" />
      <path d="M 230.400247,-1075.190503 A 16.0,0.2949185103418433 0.0 0,0 262.397859,-1075.185408" />
      <path d="M 220.112019,-1056.216893 A 16.0,0.2949185103418433 0.0 0,0 252.109631,-1056.211798" />
      <path d="M 252.112019,-1064.215534 A 16.0,0.2949185103418433 0.0 1,0 220.112019,-1064.215534" />
      <path d="M 220.112019,-1064.215534 A 16.0,0.2949185103418433 0.0 0,0 252.109631,-1064.210439" />
      <path d="M -294.899219,557.197437 C -285.572381,563.122688 -276.266636,569.083781 -266.812373,574.805017" />
      <path d="M -268.667474,661.016014 A 4.2,4.198659717489442 43.150151585224535 0,1 -274.794036,655.272812" />
      <path d="M -268.667474,691.010917 A 4.2,4.198659717489442 43.150151585224535 0,1 -274.794036,685.267715" />
      <path d="M -294.816983,557.109712 C -285.490145,563.034963 -276.1844,568.996056 -266.730137,574.717292" />
      <path d="M -268.627727,660.970866 A 4.2,4.198659717489442 43.150151585224535 0,1 -274.751547,655.230234" />
      <path d="M -268.627727,690.96577 A 4.2,4.198659717489442 43.150151585224535 0,1 -274.751547,685.225138" />
      <line x1="-245.713122" y1="-905.848937" x2="-245.713122" y2="586.99475" />
      <line x1="-245.713122" y1="737.161806" x2="-245.713122" y2="757.487727" />
      <line x1="-296.513122" y1="-987.158686" x2="-296.513122" y2="556.436278" />
      <line x1="-296.513122" y1="703.702812" x2="-296.513122" y2="757.487727" />
    </g>
    <g fill="none" stroke="rgb(0,0,0)" stroke-width="0.25" id="hidden" stroke-dasharray="1.5875 0.79375">
      <line x1="553.185144" y1="372.856127" x2="568.648956" y2="397.607283" />
      <line x1="568.648956" y1="397.607283" x2="617.168135" y2="367.304562" />
      <line x1="-346.738932" y1="-1070.475608" x2="569.746011" y2="396.436999" />
      <path d="M -245.216987,-906.517938 L -245.958196,-907.440158 L -247.947,-910.372361 L -251.08476,-915.169119 L -255.215856,-921.592532 L -260.1354,-929.324021 L -265.5994,-937.98013 L -271.33686,-947.131549 L -277.063224,-956.324399 L -282.494484,-965.102748 L -287.361269,-973.031221 L -291.422204,-979.716593 L -294.475881,-984.827295 L -296.370848,-988.109854 L -297.013122,-989.401466" />
      <path d="M -297.013122,-989.401466 L -296.363755,-988.62816 L -294.448216,-985.81593 L -291.362557,-981.105792 L -287.261508,-974.733933 L -282.350711,-967.019864 L -276.876414,-958.350401 L -271.113122,-949.160266 L -265.34983,-939.910292 L -259.875533,-931.064311 L -254.964736,-923.065898 L -250.863687,-916.316125 L -247.778028,-911.153455 L -245.862489,-907.836767 L -245.213122,-906.532371" />
      <line x1="617.066995" y1="366.918997" x2="573.701934" y2="394.002706" />
      <line x1="617.250414" y1="367.216791" x2="572.769437" y2="394.997447" />
      <line x1="618.26519" y1="366.134279" x2="569.746011" y2="396.436999" />
      <line x1="-340.584384" y1="-1069.390813" x2="573.701934" y2="394.002706" />
      <line x1="-342.138675" y1="-1069.391308" x2="572.769437" y2="394.997447" />
      <path d="M -245.213122,-915.517923 L -245.862489,-916.822319 L -247.778028,-920.139008 L -250.863687,-925.301678 L -254.964736,-932.05145 L -259.875533,-940.049864 L -265.34983,-948.895845 L -271.113122,-958.145819 L -276.876414,-967.335953 L -282.350711,-976.005416 L -287.261508,-983.719485 L -291.362557,-990.091345 L -294.448216,-994.801482 L -296.363755,-997.613712 L -297.013122,-998.387018" />
      <path d="M -297.013122,-998.387018 L -296.370848,-997.095406 L -294.475881,-993.812848 L -291.422204,-988.702146 L -287.361269,-982.016773 L -282.494484,-974.0883 L -277.063224,-965.309952 L -271.33686,-956.117101 L -265.5994,-946.965683 L -260.1354,-938.309573 L -255.215856,-930.578085 L -251.08476,-924.154672 L -247.947,-919.357913 L -245.958196,-916.42571 L -245.216987,-915.503491" />
      <path d="M -245.713122,757.487727 A 25.400000000000006,0.46818313516767635 0.0 1,0 -296.513122,757.487727" />
      <path d="M -250.475622,757.487727 A 20.637500000000017,0.38039879732373727 0.0 1,0 -291.750622,757.487727" />
      <path d="M -291.750622,757.487727 A 20.6375,0.38039879732373694 0.0 0,0 -250.478702,757.494299" />
      <path d="M -296.898921,703.055011 C -252.48955,745.732906 -133.163862,790.173533 -22.217423,770.636194" />
      <path d="M 109.247953,411.788048 C 85.107728,464.161823 59.361438,539.100569 15.364129,586.034707" />
      <path d="M 187.81366,290.175106 C 151.632624,328.771232 124.238304,379.265935 109.247953,411.788048" />
      <path d="M 531.813876,444.855037 C 555.837874,463.325604 585.091203,453.077919 603.91347,432.999262" />
      <path d="M 387.853365,341.659713 C 442.424219,367.539699 485.680763,409.384368 531.813876,444.855037" />
      <path d="M 222.276504,363.726111 C 269.536757,313.311227 338.407402,318.208849 387.853365,341.659713" />
      <line x1="-303.316924" y1="556.521863" x2="-303.316924" y2="703.052967" />
      <path d="M -22.217423,770.636194 C 5.723283,765.716215 27.951048,751.528237 45.77992,732.509286" />
      <path d="M -295.663655,701.737291 C -251.254284,744.415186 -131.928596,788.855812 -20.982157,769.318474" />
      <path d="M -295.801866,701.884728 C -251.392495,744.562623 -132.066807,789.003249 -21.120368,769.465911" />
      <path d="M -245.713122,585.22291 C -264.099253,575.108999 -280.266831,564.607835 -294.802015,555.392905" />
      <line x1="-302.219869" y1="555.35158" x2="-302.219869" y2="701.882684" />
      <path d="M -21.120368,769.465911 C 6.534093,764.596336 28.59207,750.647684 46.327634,731.922007" />
      <path d="M 223.373559,362.555828 C 270.633812,312.140944 339.504457,317.038566 388.95042,340.48943" />
      <path d="M 388.95042,340.48943 C 443.521274,366.369416 486.777817,408.214085 532.910931,443.684753" />
      <path d="M 532.910931,443.684753 C 556.701589,461.97592 585.620488,452.103994 604.459137,432.411239" />
      <line x1="618.26519" y1="366.13412" x2="554.289739" y2="371.677799" />
      <path d="M 188.362295,289.591479 C 152.452833,328.11137 125.259526,378.260174 110.345008,410.617765" />
      <path d="M 110.345008,410.617765 C 86.204783,462.99154 60.458493,537.930286 16.461183,584.864424" />
      <path d="M 110.483219,410.470327 C 86.342994,462.844103 60.596704,537.782849 16.599395,584.716986" />
      <path d="M 189.048926,288.857386 C 152.86789,327.453511 125.47357,377.948215 110.483219,410.470327" />
      <line x1="618.186745" y1="366.005457" x2="554.427951" y2="371.530362" />
      <path d="M 533.049142,443.537316 C 557.07314,462.007884 586.326469,451.760199 605.148736,431.681542" />
      <path d="M 389.088632,340.341993 C 443.659486,366.221979 486.916029,408.066648 533.049142,443.537316" />
      <path d="M 223.51177,362.40839 C 270.772023,311.993507 339.642668,316.891128 389.088632,340.341993" />
      <line x1="-302.081658" y1="555.204142" x2="-302.081658" y2="701.735247" />
      <path d="M -245.713122,584.999414 C -264.042078,574.908928 -280.165052,564.437301 -294.663804,555.245467" />
      <path d="M -20.982157,769.318474 C 6.958549,764.398495 29.186315,750.210517 47.015186,731.191565" />
      <line x1="-136.117456" y1="-750.608157" x2="-65.136518" y2="-811.438622" />
      <line x1="-136.413891" y1="-748.351398" x2="241.125232" y2="-1071.901373" />
      <path d="M -119.012083,-738.639822 A 11.00000031872422,10.996490054904383 43.150151585224535 0,1 -135.06249,-753.6859" />
      <line x1="-117.812942" y1="-736.930153" x2="248.296935" y2="-1050.685296" />
      <line x1="-117.770509" y1="-734.963803" x2="249.597349" y2="-1049.797032" />
      <path d="M -119.822734,-737.830595 A 11.0,10.996489736281871 43.150151585224535 0,1 -135.221001,-753.516808" />
      <path d="M -135.221001,-753.516808 A 11.0,10.996489736281871 43.150151585224535 0,1 -116.19744,-745.990266" />
      <line x1="-118.845734" y1="-735.828422" x2="249.666978" y2="-1049.749471" />
      <path d="M -120.919789,-736.660312 A 11.0,10.996489736281871 43.150151585224535 0,1 -136.318056,-752.346525" />
      <path d="M 262.400247,-1067.191862 A 16.0,0.2949185103418433 0.0 1,0 230.400247,-1067.191862" />
      <path d="M 252.112019,-1056.216893 A 16.0,0.2949185103418433 0.0 1,0 220.112019,-1056.216893" />
      <line x1="-303.316924" y1="556.521863" x2="-303.316924" y2="703.052967" />
      <line x1="-302.219869" y1="555.35158" x2="-302.219869" y2="701.882684" />
      <line x1="-266.812373" y1="574.805017" x2="-266.812373" y2="725.473353" />
      <path d="M -266.812373,725.473353 C -272.477468,722.049372 -278.007547,718.396286 -283.320103,714.445552 C -288.060998,710.915714 -292.633829,707.150181 -296.898921,703.055011" />
      <line x1="-265.715319" y1="573.634734" x2="-265.715319" y2="724.30307" />
      <path d="M -293.802165,556.027154 C -284.475327,561.952405 -275.169581,567.913498 -265.715319,573.634734" />
      <path d="M -265.715319,724.30307 C -271.380413,720.879089 -276.910493,717.226003 -282.223049,713.275269 C -286.963944,709.745431 -291.536774,705.979898 -295.801866,701.884728" />
      <line x1="-266.730137" y1="574.854814" x2="-266.730137" y2="725.385628" />
      <path d="M -266.730137,725.385628 C -272.395232,721.961647 -277.925311,718.308561 -283.237867,714.357827 C -287.978762,710.827989 -292.551593,707.062456 -296.816685,702.967286" />
      <path d="M -265.797554,724.390795 C -271.462649,720.966814 -276.992728,717.313728 -282.305284,713.362994 C -287.04618,709.833156 -291.61901,706.067623 -295.884102,701.972453" />
      <line x1="-296.542965" y1="556.436269" x2="-296.542965" y2="701.972243" />
      <path d="M -293.884401,556.114879 C -284.557563,562.04013 -275.251817,568.001223 -265.797554,573.722459" />
      <line x1="-265.797554" y1="573.722459" x2="-265.797554" y2="724.390795" />
      <line x1="-297.475548" y1="556.435972" x2="-297.475548" y2="702.967076" />
      <line x1="-245.713122" y1="-1069.360597" x2="-245.713122" y2="-905.848937" />
      <line x1="-245.713122" y1="586.99475" x2="-245.713122" y2="737.161806" />
      <line x1="-296.513122" y1="-1069.376776" x2="-296.513122" y2="-987.158686" />
      <line x1="-296.513122" y1="556.436278" x2="-296.513122" y2="703.702812" />
      <line x1="-250.475622" y1="-1069.866205" x2="-250.475622" y2="757.487727" />
      <line x1="-291.750622" y1="-1069.866205" x2="-291.750622" y2="757.487727" />
    </g>
  </g>
<g id="dimensions">
<line x1="-84.17" y1="-769.43" x2="-425.84" y2="-769.43" stroke="#3b5a7a" stroke-width="0.7"/>
<line x1="-50.52" y1="1075.49" x2="-425.84" y2="1075.49" stroke="#3b5a7a" stroke-width="0.7"/>
<line x1="-417.84" y1="-769.43" x2="-417.84" y2="1075.49" stroke="#3b5a7a" stroke-width="0.9"/>
<path d="M -417.84 -769.43 L -422.04 -757.43 L -413.64 -757.43 Z" fill="#3b5a7a" stroke="none"/>
<path d="M -417.84 1075.49 L -413.64 1063.49 L -422.04 1063.49 Z" fill="#3b5a7a" stroke="none"/>
<text x="-431.34" y="153.03" font-size="30.0" fill="#3b5a7a" text-anchor="middle" font-family="ui-monospace,Consolas,monospace" transform="rotate(-90.0 -431.34 153.03)">1845</text>
<line x1="-347.84" y1="1080.49" x2="-347.84" y2="1153.49" stroke="#3b5a7a" stroke-width="0.7"/>
<line x1="623.31" y1="-361.98" x2="623.31" y2="1153.49" stroke="#3b5a7a" stroke-width="0.7"/>
<line x1="-347.84" y1="1145.49" x2="623.31" y2="1145.49" stroke="#3b5a7a" stroke-width="0.9"/>
<path d="M -347.84 1145.49 L -335.84 1149.69 L -335.84 1141.29 Z" fill="#3b5a7a" stroke="none"/>
<path d="M 623.31 1145.49 L 611.31 1141.29 L 611.31 1149.69 Z" fill="#3b5a7a" stroke="none"/>
<text x="137.74" y="1131.99" font-size="30.0" fill="#3b5a7a" text-anchor="middle" font-family="ui-monospace,Consolas,monospace">971</text>
<line x1="-297.05" y1="-68.36" x2="-246.25" y2="-68.36" stroke="#3b5a7a" stroke-width="0.9"/>
<path d="M -297.05 -68.36 L -285.05 -64.16 L -285.05 -72.56 Z" fill="#3b5a7a" stroke="none"/>
<path d="M -246.25 -68.36 L -258.25 -72.56 L -258.25 -64.16 Z" fill="#3b5a7a" stroke="none"/>
<text x="-214.25" y="-78.36" font-size="30.0" fill="#3b5a7a" text-anchor="start" font-family="ui-monospace,Consolas,monospace">Ø50.8</text>
<line x1="116.72" y1="332.05" x2="160.71" y2="261.66" stroke="#3b5a7a" stroke-width="0.7"/>
<line x1="195.69" y1="381.40" x2="239.67" y2="311.01" stroke="#3b5a7a" stroke-width="0.7"/>
<line x1="156.47" y1="268.45" x2="235.43" y2="317.79" stroke="#3b5a7a" stroke-width="0.9"/>
<path d="M 156.47 268.45 L 164.42 278.37 L 168.87 271.25 Z" fill="#3b5a7a" stroke="none"/>
<path d="M 235.43 317.79 L 227.48 307.87 L 223.03 315.00 Z" fill="#3b5a7a" stroke="none"/>
<text x="203.10" y="281.67" font-size="30.0" fill="#3b5a7a" text-anchor="middle" font-family="ui-monospace,Consolas,monospace" transform="rotate(32.0 203.10 281.67)">93.1</text>
<circle cx="-174.6" cy="-741.8" r="2.4" fill="#2e7d32"/>
<circle cx="-156.7" cy="-745.3" r="2.4" fill="#2e7d32"/>
<circle cx="-138.7" cy="-748.7" r="2.4" fill="#2e7d32"/>
<circle cx="-120.8" cy="-752.2" r="2.4" fill="#2e7d32"/>
<circle cx="-102.8" cy="-750.6" r="2.4" fill="#2e7d32"/>
<circle cx="-84.9" cy="-749.0" r="2.4" fill="#2e7d32"/>
<circle cx="-67.0" cy="-747.4" r="2.4" fill="#2e7d32"/>
<circle cx="-49.0" cy="-745.8" r="2.4" fill="#2e7d32"/>
<circle cx="-31.1" cy="-739.1" r="2.4" fill="#2e7d32"/>
<circle cx="-13.2" cy="-727.5" r="2.4" fill="#2e7d32"/>
<circle cx="4.8" cy="-736.0" r="2.4" fill="#2e7d32"/>
<circle cx="22.7" cy="-729.3" r="2.4" fill="#2e7d32"/>
<circle cx="40.1" cy="-681.5" r="2.4" fill="#2e7d32"/>
<circle cx="57.6" cy="-653.8" r="2.4" fill="#2e7d32"/>
<circle cx="75.0" cy="-616.1" r="2.4" fill="#2e7d32"/>
<circle cx="92.4" cy="-578.3" r="2.4" fill="#2e7d32"/>
<circle cx="108.8" cy="-543.9" r="2.4" fill="#2e7d32"/>
<circle cx="125.2" cy="-499.5" r="2.4" fill="#2e7d32"/>
<circle cx="141.6" cy="-465.1" r="2.4" fill="#2e7d32"/>
<circle cx="157.0" cy="-424.1" r="2.4" fill="#2e7d32"/>
<circle cx="172.4" cy="-403.3" r="2.4" fill="#2e7d32"/>
<circle cx="187.7" cy="-377.4" r="2.4" fill="#2e7d32"/>
<circle cx="203.1" cy="-356.5" r="2.4" fill="#2e7d32"/>
<circle cx="218.5" cy="-340.7" r="2.4" fill="#2e7d32"/>
<circle cx="233.9" cy="-330.0" r="2.4" fill="#2e7d32"/>
<circle cx="249.2" cy="-319.2" r="2.4" fill="#2e7d32"/>
<circle cx="263.6" cy="-311.9" r="2.4" fill="#2e7d32"/>
<circle cx="277.9" cy="-304.6" r="2.4" fill="#2e7d32"/>
<circle cx="292.3" cy="-302.3" r="2.4" fill="#2e7d32"/>
<circle cx="306.6" cy="-300.0" r="2.4" fill="#2e7d32"/>
<circle cx="321.0" cy="-297.7" r="2.4" fill="#2e7d32"/>
<circle cx="335.3" cy="-305.5" r="2.4" fill="#2e7d32"/>
<circle cx="349.7" cy="-303.3" r="2.4" fill="#2e7d32"/>
<circle cx="363.0" cy="-309.4" r="2.4" fill="#2e7d32"/>
<circle cx="376.3" cy="-315.6" r="2.4" fill="#2e7d32"/>
<circle cx="389.7" cy="-321.8" r="2.4" fill="#2e7d32"/>
<circle cx="403.0" cy="-327.9" r="2.4" fill="#2e7d32"/>
<circle cx="416.3" cy="-334.1" r="2.4" fill="#2e7d32"/>
<circle cx="429.6" cy="-340.3" r="2.4" fill="#2e7d32"/>
<circle cx="443.0" cy="-346.5" r="2.4" fill="#2e7d32"/>
<circle cx="456.3" cy="-357.7" r="2.4" fill="#2e7d32"/>
<circle cx="469.6" cy="-368.9" r="2.4" fill="#2e7d32"/>
<circle cx="482.9" cy="-380.1" r="2.4" fill="#2e7d32"/>
<circle cx="496.3" cy="-391.4" r="2.4" fill="#2e7d32"/>
<circle cx="509.6" cy="-402.6" r="2.4" fill="#2e7d32"/>
<circle cx="522.9" cy="-413.8" r="2.4" fill="#2e7d32"/>
<circle cx="536.2" cy="-425.1" r="2.4" fill="#2e7d32"/>
<circle cx="-193.6" cy="-736.1" r="2.4" fill="#2e7d32"/>
<circle cx="-212.9" cy="-730.4" r="2.4" fill="#2e7d32"/>
<circle cx="-182.7" cy="-703.7" r="2.4" fill="#a8700f"/>
<circle cx="-164.8" cy="-707.2" r="2.4" fill="#a8700f"/>
<circle cx="-146.8" cy="-710.6" r="2.4" fill="#a8700f"/>
<circle cx="-128.9" cy="-714.1" r="2.4" fill="#a8700f"/>
<circle cx="-110.9" cy="-712.5" r="2.4" fill="#a8700f"/>
<circle cx="-93.0" cy="-710.9" r="2.4" fill="#a8700f"/>
<circle cx="-75.1" cy="-709.3" r="2.4" fill="#a8700f"/>
<circle cx="-57.1" cy="-707.7" r="2.4" fill="#a8700f"/>
<circle cx="-39.2" cy="-701.0" r="2.4" fill="#a8700f"/>
<circle cx="-21.3" cy="-689.4" r="2.4" fill="#a8700f"/>
<circle cx="-3.3" cy="-697.9" r="2.4" fill="#a8700f"/>
<circle cx="14.6" cy="-691.2" r="2.4" fill="#a8700f"/>
<circle cx="32.0" cy="-643.4" r="2.4" fill="#a8700f"/>
<circle cx="49.5" cy="-615.7" r="2.4" fill="#a8700f"/>
<circle cx="66.9" cy="-578.0" r="2.4" fill="#a8700f"/>
<circle cx="84.3" cy="-540.2" r="2.4" fill="#a8700f"/>
<circle cx="100.7" cy="-505.8" r="2.4" fill="#a8700f"/>
<circle cx="117.1" cy="-461.4" r="2.4" fill="#a8700f"/>
<circle cx="133.5" cy="-427.0" r="2.4" fill="#a8700f"/>
<circle cx="148.9" cy="-386.0" r="2.4" fill="#a8700f"/>
<circle cx="164.3" cy="-365.2" r="2.4" fill="#a8700f"/>
<circle cx="179.6" cy="-339.3" r="2.4" fill="#a8700f"/>
<circle cx="195.0" cy="-318.4" r="2.4" fill="#a8700f"/>
<circle cx="210.4" cy="-302.6" r="2.4" fill="#a8700f"/>
<circle cx="225.8" cy="-291.9" r="2.4" fill="#a8700f"/>
<circle cx="241.1" cy="-281.1" r="2.4" fill="#a8700f"/>
<circle cx="255.5" cy="-273.8" r="2.4" fill="#a8700f"/>
<circle cx="269.8" cy="-266.5" r="2.4" fill="#a8700f"/>
<circle cx="284.2" cy="-264.2" r="2.4" fill="#a8700f"/>
<circle cx="298.5" cy="-261.9" r="2.4" fill="#a8700f"/>
<circle cx="312.9" cy="-259.6" r="2.4" fill="#a8700f"/>
<circle cx="327.2" cy="-267.4" r="2.4" fill="#a8700f"/>
<circle cx="341.6" cy="-265.2" r="2.4" fill="#a8700f"/>
<circle cx="354.9" cy="-271.3" r="2.4" fill="#a8700f"/>
<circle cx="368.2" cy="-277.5" r="2.4" fill="#a8700f"/>
<circle cx="381.6" cy="-283.7" r="2.4" fill="#a8700f"/>
<circle cx="394.9" cy="-289.8" r="2.4" fill="#a8700f"/>
<circle cx="408.2" cy="-296.0" r="2.4" fill="#a8700f"/>
<circle cx="421.5" cy="-302.2" r="2.4" fill="#a8700f"/>
<circle cx="434.9" cy="-308.4" r="2.4" fill="#a8700f"/>
<circle cx="448.2" cy="-319.6" r="2.4" fill="#a8700f"/>
<circle cx="461.5" cy="-330.8" r="2.4" fill="#a8700f"/>
<circle cx="474.8" cy="-342.0" r="2.4" fill="#a8700f"/>
<circle cx="488.2" cy="-353.3" r="2.4" fill="#a8700f"/>
<circle cx="501.5" cy="-364.5" r="2.4" fill="#a8700f"/>
<circle cx="514.8" cy="-375.7" r="2.4" fill="#a8700f"/>
<circle cx="528.1" cy="-387.0" r="2.4" fill="#a8700f"/>
<circle cx="-201.5" cy="-698.8" r="2.4" fill="#a8700f"/>
<circle cx="-220.9" cy="-693.1" r="2.4" fill="#a8700f"/>
<circle cx="-220.8" cy="-605.3" r="2.4" fill="#3b6fb5"/>
<circle cx="-201.5" cy="-612.4" r="2.4" fill="#3b6fb5"/>
<circle cx="-182.7" cy="-618.7" r="2.4" fill="#3b6fb5"/>
<circle cx="-164.8" cy="-623.6" r="2.4" fill="#3b6fb5"/>
<circle cx="-146.8" cy="-628.5" r="2.4" fill="#3b6fb5"/>
<circle cx="-128.9" cy="-633.3" r="2.4" fill="#3b6fb5"/>
<circle cx="-110.9" cy="-633.4" r="2.4" fill="#3b6fb5"/>
<circle cx="-93.0" cy="-633.5" r="2.4" fill="#3b6fb5"/>
<circle cx="-75.1" cy="-633.6" r="2.4" fill="#3b6fb5"/>
<circle cx="-57.1" cy="-633.7" r="2.4" fill="#3b6fb5"/>
<circle cx="-39.2" cy="-629.1" r="2.4" fill="#3b6fb5"/>
<circle cx="-21.3" cy="-619.7" r="2.4" fill="#3b6fb5"/>
<circle cx="-3.3" cy="-629.3" r="2.4" fill="#3b6fb5"/>
<circle cx="14.6" cy="-624.6" r="2.4" fill="#3b6fb5"/>
<circle cx="32.0" cy="-581.0" r="2.4" fill="#3b6fb5"/>
<circle cx="49.5" cy="-556.5" r="2.4" fill="#3b6fb5"/>
<circle cx="66.9" cy="-522.4" r="2.4" fill="#3b6fb5"/>
<circle cx="84.3" cy="-488.3" r="2.4" fill="#3b6fb5"/>
<circle cx="100.7" cy="-457.4" r="2.4" fill="#3b6fb5"/>
<circle cx="117.1" cy="-416.9" r="2.4" fill="#3b6fb5"/>
<circle cx="133.5" cy="-385.9" r="2.4" fill="#3b6fb5"/>
<circle cx="148.9" cy="-348.6" r="2.4" fill="#3b6fb5"/>
<circle cx="164.3" cy="-330.3" r="2.4" fill="#3b6fb5"/>
<circle cx="179.6" cy="-307.2" r="2.4" fill="#3b6fb5"/>
<circle cx="195.0" cy="-288.9" r="2.4" fill="#3b6fb5"/>
<circle cx="210.4" cy="-275.4" r="2.4" fill="#3b6fb5"/>
<circle cx="225.8" cy="-266.7" r="2.4" fill="#3b6fb5"/>
<circle cx="241.1" cy="-257.9" r="2.4" fill="#3b6fb5"/>
<circle cx="255.5" cy="-252.3" r="2.4" fill="#3b6fb5"/>
<circle cx="269.8" cy="-246.6" r="2.4" fill="#3b6fb5"/>
<circle cx="284.2" cy="-245.8" r="2.4" fill="#3b6fb5"/>
<circle cx="298.5" cy="-244.9" r="2.4" fill="#3b6fb5"/>
<circle cx="312.9" cy="-244.0" r="2.4" fill="#3b6fb5"/>
<circle cx="327.2" cy="-252.7" r="2.4" fill="#3b6fb5"/>
<circle cx="341.6" cy="-251.8" r="2.4" fill="#3b6fb5"/>
<circle cx="354.9" cy="-258.9" r="2.4" fill="#3b6fb5"/>
<circle cx="368.2" cy="-265.9" r="2.4" fill="#3b6fb5"/>
<circle cx="381.6" cy="-272.9" r="2.4" fill="#3b6fb5"/>
<circle cx="394.9" cy="-279.9" r="2.4" fill="#3b6fb5"/>
<circle cx="408.2" cy="-286.9" r="2.4" fill="#3b6fb5"/>
<circle cx="421.5" cy="-294.0" r="2.4" fill="#3b6fb5"/>
<circle cx="434.9" cy="-301.0" r="2.4" fill="#3b6fb5"/>
<circle cx="448.2" cy="-312.8" r="2.4" fill="#3b6fb5"/>
<circle cx="461.5" cy="-324.6" r="2.4" fill="#3b6fb5"/>
<circle cx="474.8" cy="-336.4" r="2.4" fill="#3b6fb5"/>
<circle cx="488.2" cy="-348.2" r="2.4" fill="#3b6fb5"/>
<circle cx="501.5" cy="-360.0" r="2.4" fill="#3b6fb5"/>
<circle cx="514.8" cy="-371.8" r="2.4" fill="#3b6fb5"/>
<circle cx="528.1" cy="-383.5" r="2.4" fill="#3b6fb5"/>
<g font-size="13" font-family="ui-monospace,Consolas,monospace"><circle cx="-377" cy="-725" r="3.5" fill="#2e7d32"/><text x="-365" y="-731" fill="#2e7d32">tuner pins</text><circle cx="-377" cy="-685" r="3.5" fill="#a8700f"/><text x="-365" y="-691" fill="#a8700f">flat pins</text><circle cx="-377" cy="-645" r="3.5" fill="#3b6fb5"/><text x="-365" y="-651" fill="#3b6fb5">optical axes</text></g>
<text x="-459.3" y="-759.8" font-size="11" fill="#999" font-family="ui-monospace,Consolas,monospace">generated 2026-09-02 11:07 — stale if this date is old</text>
</g>
</svg>