<?xml version='1.0' encoding='utf-8'?>
<svg width="138.95mm" height="289.41mm" viewBox="-43.20 -160.58 138.95 289.41" version="1.1" xmlns="http://www.w3.org/2000/svg">
  <g transform="scale(1,-1)" stroke-linecap="round">
    <g fill="none" stroke="rgb(0,0,0)" stroke-width="0.5" id="visible">
      <line x1="-31.75" y1="-88.825765" x2="31.75" y2="-88.825765" />
      <line x1="-31.75" y1="-41.808346" x2="-31.75" y2="85.099154" />
      <path d="M -31.75,-88.151666 C -31.75,-85.089328 -31.75,-82.013262 -31.75,-78.968697 C -31.75,-71.828357 -31.75,-64.87597 -31.75,-58.451593 C -31.75,-52.383666 -31.75,-46.778265 -31.75,-41.808346" />
      <line x1="31.75" y1="-41.808346" x2="31.75" y2="85.099154" />
      <path d="M 31.75,-88.151666 C 31.75,-85.089328 31.75,-82.013262 31.75,-78.968697 C 31.75,-71.828357 31.75,-64.87597 31.75,-58.451593 C 31.75,-52.383666 31.75,-46.778265 31.75,-41.808346" />
      <line x1="26.99" y1="-88.824857" x2="-26.99" y2="-88.824857" />
      <line x1="-26.99" y1="-41.808346" x2="-26.99" y2="85.099154" />
      <path d="M -26.99,-88.151666 C -26.99,-85.089328 -26.99,-82.013262 -26.99,-78.968697 C -26.99,-71.828357 -26.99,-64.87597 -26.99,-58.451593 C -26.99,-52.383666 -26.99,-46.778265 -26.99,-41.808346" />
      <path d="M -26.99,58.530923 L -7.999999,58.530923" />
      <path d="M 26.99,58.530923 L -8.0,58.530923" />
      <line x1="26.99" y1="-41.808346" x2="26.99" y2="85.099154" />
      <path d="M 26.99,-88.151666 C 26.99,-85.089328 26.99,-82.013262 26.99,-78.968697 C 26.99,-71.828357 26.99,-64.87597 26.99,-58.451593 C 26.99,-52.383666 26.99,-46.778265 26.99,-41.808346" />
    </g>
    <g fill="none" stroke="rgb(0,0,0)" stroke-width="0.25" id="hidden" stroke-dasharray="1.5875 0.79375">
      <line x1="-31.75" y1="-88.825765" x2="-31.75" y2="57.730237" />
      <line x1="-31.75" y1="57.730237" x2="31.75" y2="57.730237" />
      <line x1="31.75" y1="-88.825765" x2="31.75" y2="57.730237" />
      <path d="M -31.75,85.091835 C -31.75,80.993009 -31.75,76.555347 -31.75,71.663995 C -31.75,67.413377 -31.75,62.82503 -31.75,57.731012" />
      <line x1="-8.0" y1="57.731012" x2="31.75" y2="57.731012" />
      <path d="M 31.75,85.091835 C 31.75,80.993009 31.75,76.555347 31.75,71.663995 C 31.75,67.413377 31.75,62.82503 31.75,57.731012" />
      <path d="M -26.99,85.091835 C -26.99,81.099604 -26.99,76.785433 -26.99,72.044355 C -26.99,67.910723 -26.99,63.456779 -26.99,58.530923" />
      <path d="M 26.99,85.091835 C 26.99,81.099604 26.99,76.785433 26.99,72.044355 C 26.99,67.910723 26.99,63.456779 26.99,58.530923" />
      <line x1="26.99" y1="-88.824857" x2="26.99" y2="58.530923" />
      <line x1="-26.99" y1="-88.824857" x2="-26.99" y2="58.530923" />
    </g>
  </g>
<g id="dimensions">
<line x1="-31.75" y1="-90.08" x2="-31.75" y2="-119.08" stroke="#3b5a7a" stroke-width="0.7"/>
<line x1="31.75" y1="-90.08" x2="31.75" y2="-119.08" stroke="#3b5a7a" stroke-width="0.7"/>
<line x1="-31.75" y1="-111.08" x2="31.75" y2="-111.08" stroke="#3b5a7a" stroke-width="0.9"/>
<path d="M -31.75 -111.08 L -19.75 -106.88 L -19.75 -115.28 Z" fill="#3b5a7a" stroke="none"/>
<path d="M 31.75 -111.08 L 19.75 -115.28 L 19.75 -106.88 Z" fill="#3b5a7a" stroke="none"/>
<text x="-0.00" y="-124.58" font-size="30.0" fill="#3b5a7a" text-anchor="middle" font-family="ui-monospace,Consolas,monospace">63.5</text>
<line x1="-26.99" y1="93.83" x2="-26.99" y2="122.83" stroke="#3b5a7a" stroke-width="0.7"/>
<line x1="26.99" y1="93.83" x2="26.99" y2="122.83" stroke="#3b5a7a" stroke-width="0.7"/>
<line x1="-26.99" y1="114.83" x2="26.99" y2="114.83" stroke="#3b5a7a" stroke-width="0.9"/>
<path d="M -26.99 114.83 L -14.99 119.03 L -14.99 110.63 Z" fill="#3b5a7a" stroke="none"/>
<path d="M 26.99 114.83 L 14.99 110.63 L 14.99 119.03 Z" fill="#3b5a7a" stroke="none"/>
<text x="-0.00" y="101.33" font-size="30.0" fill="#3b5a7a" text-anchor="middle" font-family="ui-monospace,Consolas,monospace">54.0</text>
<line x1="26.99" y1="1.87" x2="31.75" y2="1.87" stroke="#3b5a7a" stroke-width="0.9"/>
<path d="M 26.99 1.87 L 14.99 -2.33 L 14.99 6.07 Z" fill="#3b5a7a" stroke="none"/>
<path d="M 31.75 1.87 L 43.75 6.07 L 43.75 -2.33 Z" fill="#3b5a7a" stroke="none"/>
<line x1="26.99" y1="1.87" x2="0.59" y2="1.87" stroke="#3b5a7a" stroke-width="0.9"/>
<line x1="31.75" y1="1.87" x2="58.15" y2="1.87" stroke="#3b5a7a" stroke-width="0.9"/>
<text x="43.75" y="-4.13" font-size="30.0" fill="#3b5a7a" text-anchor="start" font-family="ui-monospace,Consolas,monospace">4.8</text>
<text x="-35.2" y="-144.6" font-size="11" fill="#999" font-family="ui-monospace,Consolas,monospace">generated 2026-09-02 10:44 — stale if this date is old</text>
</g>
</svg>